<?xml version="1.0" encoding="UTF-8" standalone="no"?>
<!-- Created with Inkscape (http://www.inkscape.org/) -->

<svg
   version="1.1"
   id="svg1"
   width="1280"
   height="720"
   viewBox="0 0 1280 720"
   sodipodi:docname="PL.svg"
   inkscape:version="1.3 (0e150ed6c4, 2023-07-21)"
   inkscape:export-filename="PL.png"
   inkscape:export-xdpi="96"
   inkscape:export-ydpi="96"
   xmlns:inkscape="http://www.inkscape.org/namespaces/inkscape"
   xmlns:sodipodi="http://sodipodi.sourceforge.net/DTD/sodipodi-0.dtd"
   xmlns="http://www.w3.org/2000/svg"
   xmlns:svg="http://www.w3.org/2000/svg">
  <defs
     id="defs1">
    <inkscape:path-effect
       effect="spiro"
       id="path-effect7"
       is_visible="true"
       lpeversion="1" />
  </defs>
  <sodipodi:namedview
     id="namedview1"
     pagecolor="#ffffff"
     bordercolor="#000000"
     borderopacity="0.25"
     inkscape:showpageshadow="2"
     inkscape:pageopacity="0.0"
     inkscape:pagecheckerboard="0"
     inkscape:deskcolor="#d1d1d1"
     inkscape:zoom="0.64799707"
     inkscape:cx="600.31135"
     inkscape:cy="315.58784"
     inkscape:window-width="1920"
     inkscape:window-height="1111"
     inkscape:window-x="-9"
     inkscape:window-y="-9"
     inkscape:window-maximized="1"
     inkscape:current-layer="g1"
     inkscape:export-bgcolor="#ffffffff" />
  <g
     inkscape:groupmode="layer"
     inkscape:label="Image"
     id="g1">
    <path
       style="fill:#000000;stroke:#000000;stroke-width:4"
       d="M 1048.8887,377.62114 1048.31,419.4809"
       id="path3-6" />
    <text
       xml:space="preserve"
       style="font-size:53.3333px;line-height:1;text-align:center;text-anchor:middle;fill:#000000;stroke:#000000;stroke-width:4"
       x="138.15707"
       y="349.3768"
       id="text2-9"><tspan
         sodipodi:role="line"
         id="tspan2-4"
         x="138.15707"
         y="349.3768"
         style="font-size:53.3333px">MEASURE</tspan></text>
    <path
       style="fill:#0000ff;stroke:#0000ff;stroke-width:4"
       d="m 985.27124,364.18239 62.47216,-0.1364"
       id="path1-9" />
    <rect
       style="fill:#00ff00;stroke:#00ff00;stroke-width:3.78235"
       id="rect1"
       width="708.28644"
       height="68.501099"
       x="276.10202"
       y="180.54208" />
    <path
       style="fill:#00ff00;stroke:#00ff00;stroke-width:4"
       d="m 986.05285,248.93436 62.47225,-0.1364"
       id="path1" />
    <rect
       style="fill:#0000ff;stroke:#0000ff;stroke-width:3.91203"
       id="rect2"
       width="708.15698"
       height="68.370964"
       x="276.16687"
       y="295.85541" />
    <text
       xml:space="preserve"
       style="font-size:53.3333px;line-height:1;text-align:center;text-anchor:middle;fill:#000000;stroke:#000000;stroke-width:4"
       x="136.56854"
       y="234.18065"
       id="text2"><tspan
         sodipodi:role="line"
         id="tspan2"
         x="136.56854"
         y="234.18065"
         style="font-size:53.3333px">LASER</tspan></text>
    <path
       style="fill:#000000;stroke:#000000;stroke-width:4"
       d="m 985.53686,377.62114 -0.57871,41.85976"
       id="path3" />
    <path
       style="fill:#000000;stroke:#000000;stroke-width:4"
       d="m 991.31463,377.62114 -0.5787,41.85976"
       id="path3-2" />
    <path
       style="fill:#000000;stroke:#000000;stroke-width:4"
       d="m 274.42111,378.19985 0,41.28105"
       id="path3-7"
       sodipodi:nodetypes="cc" />
    <path
       style="fill:#000000;stroke:#000000;stroke-width:4"
       d="m 274.6926,398.14995 710.26555,-0.77161"
       id="path5" />
    <path
       style="fill:#000000;stroke:#000000;stroke-width:4"
       d="m 990.74522,398.14995 h 58.64228"
       id="path6" />
    <path
       style="fill:none;stroke:#000000;stroke-width:10;stroke-dasharray:none"
       d="m 302.4705,495.37261 c 83.18216,76.4429 191.77317,124.75232 304.24732,135.35203 148.71459,14.01506 302.48801,-39.56026 410.29838,-142.9497"
       id="path7"
       inkscape:path-effect="#path-effect7"
       inkscape:original-d="m 302.4705,495.37261 c 102.14325,45.84482 202.83155,90.23468 304.24732,135.35203 101.41577,45.11734 273.53225,-95.2998 410.29838,-142.9497" />
    <path
       style="fill:#ffffff;stroke:#000000;stroke-width:10;stroke-dasharray:none"
       d="m 316.55236,484.57009 -23.53406,29.32112 -5.78706,-30.67143 z"
       id="path8" />
    <path
       style="fill:#ffffff;stroke:#000000;stroke-width:1.92902;stroke-dasharray:none"
       d="m 295.90513,501.82518 c -0.004,-0.15384 -0.55972,-3.1877 -1.23561,-6.74193 -0.6759,-3.55422 -1.21542,-6.46754 -1.19894,-6.47405 0.0165,-0.007 2.90551,0.11715 6.42005,0.27481 l 6.39007,0.28666 -5.01878,6.28385 c -5.83458,7.30531 -5.34825,6.72693 -5.35679,6.37066 z"
       id="path9" />
    <path
       style="fill:#ffffff;stroke:#000000;stroke-width:1.92902;stroke-dasharray:none"
       d="m 295.67535,494.65376 c -0.49475,-2.6755 -0.87054,-4.89355 -0.83509,-4.929 0.0718,-0.0718 9.03925,0.37371 9.14197,0.45421 0.0551,0.0432 -6.54504,8.39939 -7.1869,9.09906 -0.16752,0.18261 -0.43633,-0.9273 -1.11998,-4.62427 z"
       id="path10" />
    <path
       style="fill:#ffffff;stroke:#000000;stroke-width:1.92902;stroke-dasharray:none"
       d="m 296.62685,493.90111 c -0.29532,-1.60505 -0.49366,-2.96155 -0.44076,-3.01446 0.0529,-0.0529 1.35963,-0.0201 2.90384,0.073 l 2.80766,0.16915 -2.24005,2.84531 c -1.23203,1.56492 -2.29713,2.8453 -2.3669,2.8453 -0.0698,0 -0.36847,-1.31322 -0.66379,-2.91826 z"
       id="path11" />
    <path
       style="fill:#ffffff;stroke:#000000;stroke-width:1.92902;stroke-dasharray:none"
       d="m 297.79912,494.2014 c -0.0589,-0.0985 -0.16853,-0.63484 -0.24367,-1.19184 l -0.13661,-1.01274 h 1.18865 1.18865 l -0.38484,0.53048 c -0.81775,1.1272 -1.50964,1.84565 -1.61218,1.6741 z"
       id="path12" />
    <path
       style="fill:#000000;stroke:#000000;stroke-width:0.964511;stroke-dasharray:none"
       d="m 372.83155,555.44006 c -23.8301,-15.20569 -44.79452,-30.89128 -65.10083,-48.70847 l -1.53958,-1.35086 -0.48589,0.59634 c -0.26724,0.32798 -3.87087,4.81584 -8.00806,9.97302 -6.46543,8.05942 -7.5314,9.34577 -7.58796,9.15661 -0.12371,-0.41379 -8.8876,-47.04957 -8.84862,-47.0867 0.0477,-0.0454 45.12746,2.02839 45.16899,2.07794 0.0163,0.0195 -3.1399,3.98112 -7.01383,8.80367 l -7.04351,8.76826 0.2437,0.20169 c 0.13404,0.11092 1.25902,1.0927 2.49996,2.18173 20.54382,18.02888 43.67483,35.09344 67.89121,50.08574 2.47512,1.53234 9.43177,5.72523 10.07914,6.07487 0.26837,0.14494 -0.40302,0.15602 -9.2593,0.1528 l -9.54866,-0.003 z m -69.54894,-64.37203 c -0.0761,-0.12311 -0.2334,-0.005 -0.2334,0.17469 0,0.1226 0.0268,0.12851 0.14361,0.0316 0.079,-0.0655 0.1194,-0.15838 0.0898,-0.20629 z"
       id="path13" />
  </g>
</svg>
